<?xml version="1.0" standalone="no"?>
<!DOCTYPE svg PUBLIC "-//W3C//DTD SVG 20010904//EN"
 "http://www.w3.org/TR/2001/REC-SVG-20010904/DTD/svg10.dtd">
<svg version="1.0" xmlns="http://www.w3.org/2000/svg"
 width="100.000000pt" height="100.000000pt" viewBox="0 0 100.000000 100.000000"
 preserveAspectRatio="xMidYMid meet">

<g transform="translate(0.000000,100.000000) scale(0.100000,-0.100000)"
fill="#000000" stroke="none">
<path d="M412 951 c-18 -5 -43 -18 -56 -30 -12 -11 -30 -21 -40 -21 -9 0 -31
-8 -49 -17 l-32 -18 119 -3 c98 -2 122 0 137 14 28 25 89 43 154 45 l60 1 -45
14 c-55 18 -202 27 -248 15z"/>
<path d="M567 870 c-30 -9 -57 -28 -57 -39 0 -4 32 -12 71 -18 138 -21 191
-85 197 -238 5 -104 -14 -194 -54 -263 l-25 -43 49 25 c130 66 201 242 158
390 -23 80 -100 157 -176 180 -58 17 -118 19 -163 6z"/>
<path d="M104 810 c-30 -12 -36 -25 -41 -82 -6 -76 5 -87 78 -81 50 5 61 3 57
-8 -3 -9 -25 -16 -63 -19 -57 -5 -60 -6 -69 -38 -6 -22 -5 -45 3 -72 l12 -40
32 23 c46 35 91 47 169 47 38 0 78 5 88 10 23 12 40 67 40 130 1 40 5 47 33
65 22 14 32 28 32 45 0 24 -3 25 -74 28 -65 3 -75 0 -88 -18 -18 -26 -49 -26
-65 0 -10 16 -23 20 -68 19 -30 0 -65 -4 -76 -9z"/>
<path d="M568 733 c54 -52 72 -94 72 -174 0 -39 -8 -59 -52 -125 -64 -99 -88
-150 -88 -192 0 -28 3 -32 19 -27 10 3 38 11 62 18 51 15 108 82 135 157 22
61 29 204 14 260 -16 60 -65 105 -130 119 -83 18 -86 14 -32 -36z"/>
<path d="M490 721 c0 -5 7 -25 15 -44 34 -82 2 -162 -103 -255 -85 -76 -110
-126 -93 -188 6 -21 18 -47 25 -57 14 -18 16 -18 70 -1 55 17 56 18 56 56 0
52 28 120 84 207 28 42 50 89 53 111 7 50 -13 108 -50 148 -30 31 -57 42 -57
23z"/>
<path d="M446 632 c-11 -95 -41 -127 -131 -137 -70 -9 -117 -30 -163 -76 -95
-94 -92 -213 9 -323 l51 -56 48 51 48 52 -21 40 c-47 90 -16 186 83 264 74 57
116 132 107 190 -10 61 -24 59 -31 -5z"/>
</g>
</svg>
